<svg width="96" height="20" viewBox="0 0 96 20" fill="none" xmlns="http://www.w3.org/2000/svg">
<path fill-rule="evenodd" clip-rule="evenodd" d="M20.8326 19.1173H15.8529L15.1493 18.1971C14.175 18.576 13.3089 18.8466 12.5512 19.0631C11.7934 19.2255 10.9815 19.3338 10.0613 19.3338C7.03018 19.3338 4.64858 18.576 2.97063 17.1145C1.18443 15.599 0.318398 13.2715 0.318398 10.2945C0.318398 7.26338 1.13031 4.93591 2.7 3.36622C4.32382 1.79653 6.75954 0.984619 10.0613 0.984619C13.2548 0.984619 15.6905 1.85066 17.3685 3.5286C18.8299 4.99004 19.5336 6.88449 19.5336 9.15784C19.5336 10.8358 19.4794 12.0807 19.3171 12.8385C19.1006 14.0293 18.5593 15.166 17.8015 16.1944L20.8326 19.1173ZM15.1493 10.1321C15.1493 8.50831 14.8245 7.20926 14.1208 6.18084C13.2548 4.88178 11.8475 4.23226 10.0072 4.23226C8.27511 4.23226 6.92192 4.7194 6.05589 5.74782C5.18985 6.72211 4.75683 8.18355 4.75683 10.078C4.75683 12.189 5.24398 13.7587 6.2724 14.7329C7.19256 15.599 8.54574 16.032 10.3319 16.032C11.9558 16.032 13.1466 15.5449 13.9585 14.5706C14.7704 13.5421 15.1493 12.0807 15.1493 10.1321Z" fill="#F95A59"/>
<path fill-rule="evenodd" clip-rule="evenodd" d="M39.6152 13.5421C39.6152 15.1118 39.0739 16.4109 38.0455 17.4934C37.0171 18.576 35.718 19.0631 34.0942 19.0631H21.6449V15.8696H31.9833C32.6869 15.8696 33.2823 15.7072 33.7153 15.3825C34.2566 15.0036 34.5272 14.5164 34.5272 13.8669C34.5272 12.3513 33.4447 11.5936 31.3337 11.5936H26.1375C24.6219 11.5936 23.3229 11.1064 22.1862 10.1863C21.0495 9.26609 20.5083 8.07529 20.5083 6.61386C20.5083 5.04417 21.0495 3.74511 22.1862 2.77082C23.2688 1.79653 24.7302 1.30939 26.5705 1.30939H38.5327V4.34051H27.9237C27.4366 4.34051 26.9494 4.55702 26.5164 4.93591C25.9751 5.3148 25.7586 5.80195 25.7586 6.34322C25.7586 6.93862 25.9751 7.47989 26.4623 7.85878C26.9494 8.2918 27.4907 8.45418 28.1402 8.45418H33.8777C35.6639 8.45418 37.0712 8.94133 38.0996 9.86149C39.1281 10.7817 39.6152 12.0266 39.6152 13.5421Z" fill="#F95A59"/>
<path fill-rule="evenodd" clip-rule="evenodd" d="M60.0752 10.1321C60.0752 13.5963 59.1009 16.032 57.2065 17.5476C55.6368 18.7384 53.3635 19.3338 50.4406 19.3338C47.1388 19.3338 44.7031 18.6301 43.1334 17.2769C41.4013 15.7614 40.5353 13.3256 40.5353 9.96975C40.5353 7.20926 41.2931 5.04417 42.8628 3.52861C44.5407 1.85067 47.0306 1.03876 50.3865 1.03876C54.0671 1.03876 56.6111 1.85067 58.1267 3.42036C59.4257 4.82767 60.0752 7.04688 60.0752 10.1321ZM55.5285 10.0239C55.5285 8.29181 55.0955 6.8845 54.2836 5.85608C53.3635 4.71941 51.9561 4.12401 50.1699 4.12401C48.3837 4.12401 47.0306 4.71941 46.1104 5.96434C45.3526 6.99276 44.9737 8.34594 44.9737 9.96975C44.9737 11.8642 45.2985 13.2715 45.8939 14.1917C46.7599 15.4366 48.2755 16.0861 50.603 16.0861C52.5515 16.0861 53.9047 15.4907 54.6625 14.2458C55.2579 13.3798 55.5285 11.9183 55.5285 10.0239Z" fill="#F95A59"/>
<path fill-rule="evenodd" clip-rule="evenodd" d="M77.8827 11.6477H65.65V19.009H61.2657V8.12942C61.2657 7.47989 61.3739 6.72211 61.6446 5.9102C62.1317 4.44877 63.0519 3.36622 64.405 2.60844C65.9747 1.74241 68.5728 1.30939 72.1452 1.30939C79.7772 1.30939 87.4091 1.30939 95.0411 1.30939V4.28639H88.4376V19.009H84.3239V4.28639C80.102 4.28639 76.0965 4.23226 71.8746 4.23226C70.2508 4.23226 69.1141 4.34051 68.4646 4.5029C67.3279 4.77353 66.5701 5.42306 66.083 6.34322C65.7041 7.04688 65.5417 7.80466 65.5417 8.67069H77.8827V11.6477Z" fill="#F95A59"/>
</svg>
